<svg viewBox="0 0 870.3 149.8" xmlns="http://www.w3.org/2000/svg" xmlns:xlink="http://www.w3.org/1999/xlink"><defs><path id="a" d="m258.3.3-62.1 85h18.1l13.4-18.2h60.5l8.4 18.2h18.1l-38.4-85zm-17.3 48.6 24.4-34.9 14.8 34.9 1.7 3.6h-43.7z"/><clipPath id="b"><use xlink:href="#a"/></clipPath><clipPath id="c"><use xlink:href="#h"/></clipPath><clipPath id="d"><use xlink:href="#i"/></clipPath><clipPath id="e"><use xlink:href="#j"/></clipPath><clipPath id="f"><use xlink:href="#k"/></clipPath><clipPath id="g"><use xlink:href="#l"/></clipPath><path id="h" d="m333.3.3-11.9 85h15.6l3.5-24.9h48c21.5 0 41.2-8.9 41.2-34.6 0-18.9-14.8-25.5-32.8-25.5zm13.7 14.6h49c10.2 0 17.5 3.4 17.5 13 0 13.4-9.4 17.9-21.9 17.9h-49z"/><path id="i" d="m481.5.3-62.1 85h18.1l13.4-18.2h60.5l8.4 18.2h18.1l-38.4-85zm-17.4 48.6 24.4-34.9 14.8 34.9 1.7 3.6h-43.7z"/><path id="j" d="m556.4.3-11.9 85h15.7l4.3-30.4h26.5l33 30.4h24.3l-35-30.9h3.2c19.7 0 36.8-7.9 36.8-31.1 0-17-12.8-23.1-29.4-23.1h-67.5v.1zm13.8 14.6h52.2c8.6 0 14.6 2.9 14.6 10.8 0 10.9-7.9 14.6-18.3 14.6h-52.1z"/><path id="k" d="m662.8.3-2.1 14.6h41.3l-10 70.4h15.7l10-70.4h41.4l2.1-14.6z"/><path id="l" d="m759.4 42.8c-3.4 24.4 12.9 42.9 49.2 42.9s57.8-18.5 61.2-42.9-12.9-42.9-49.2-42.9-57.8 18.4-61.2 42.9m15.4 0c2.4-16.8 16.9-28.8 44-28.8 27 0 38 12 35.6 28.8-2.3 16.7-16.7 28.7-43.7 28.7-27.1 0-38.3-12-35.9-28.7"/></defs><path d="m199.7 19.3a30.5 30.5 0 0 0 -9.2-11.1c-3.8-2.9-8.1-5-12.8-6.3a55 55 0 0 0 -14.4-2h-29l-57 78.7-5 6.9h78.7c7.5 0 14.4-1.2 20.8-3.6a45.7 45.7 0 0 0 27.5-25.8 51.5 51.5 0 0 0 3.9-20.4c0-6.4-1.1-11.8-3.5-16.4zm-13.4 30.8c-1.4 4-3.6 7.5-6.5 10.5a32.5 32.5 0 0 1 -25.3 10.2h-53.3l40.8-56.4h20.1c4.5 0 8.5.6 11.8 1.9s6 3 8.2 5.1c2.1 2.1 3.7 4.6 4.8 7.4 1 2.8 1.6 5.9 1.6 9.1 0 4.2-.7 8.2-2.2 12.2z" fill="#004874"/><path d="m116.2-.1-61.7 85.7h-18.2l61.7-85.7z" fill="#009877"/><path d="m80-.1-61.9 85.7h-18.1l61.9-85.7z" fill="#004874"/><use fill="#004874" xlink:href="#a"/><g clip-path="url(#b)"><path d="m196.1 0h118.8v85.7h-118.8z" fill="#004874"/></g><use fill="#004874" xlink:href="#h"/><g clip-path="url(#c)"><path d="m321.2 0h108.6v85.7h-108.6z" fill="#004874"/></g><use fill="#004874" xlink:href="#i"/><g clip-path="url(#d)"><path d="m419.2 0h118.8v85.7h-118.8z" fill="#004874"/></g><use fill="#004874" xlink:href="#j"/><g clip-path="url(#e)"><path d="m544.3 0h109v85.7h-109z" fill="#004874"/></g><use fill="#004874" xlink:href="#k"/><g clip-path="url(#f)"><path d="m660.6 0h100.9v85.7h-100.9z" fill="#004874"/></g><use fill="#004874" xlink:href="#l"/><g clip-path="url(#g)"><path d="m758.7-.3h111.6v86.2h-111.6z" fill="#004874"/></g><path d="m126.4 149.8-6.8-27h3.7l3.2 13.6a240 240 0 0 1 2 9.3h.1c.4-2.7 1.3-5.9 2.2-9.4l3.6-13.6h3.6l3.3 13.7c.8 3.2 1.5 6.4 1.9 9.2h.1c.6-3 1.3-6 2.2-9.3l3.6-13.6h3.6l-7.6 27h-3.6l-3.4-14c-.8-3.4-1.4-6.1-1.8-8.8h-.3c-.5 2.7-1.1 5.3-2.1 8.8l-3.8 14h-3.7zm53.4-12.7h-10.5v9.7h11.7v2.9h-15.2v-27h14.6v2.9h-11.1v8.5h10.5zm34.2-13.9c2.1-.3 4.6-.6 7.4-.6 5 0 8.6 1.2 10.9 3.4 2.4 2.2 3.8 5.3 3.8 9.7s-1.4 8-3.9 10.5-6.7 3.9-11.9 3.9c-2.5 0-4.6-.1-6.3-.3zm3.5 23.8c.9.2 2.2.2 3.5.2 7.4 0 11.5-4.2 11.5-11.4 0-6.4-3.6-10.4-10.9-10.4-1.8 0-3.2.2-4.1.4zm33.2-23.8c1.8-.4 4.3-.6 6.7-.6 3.7 0 6.1.7 7.8 2.2 1.4 1.2 2.1 3 2.1 5.1 0 3.6-2.2 5.9-5.1 6.9v.1c2.1.7 3.3 2.6 4 5.4.9 3.8 1.5 6.4 2.1 7.4h-3.6c-.4-.8-1-3.1-1.8-6.4-.8-3.7-2.2-5.1-5.4-5.2h-3.3v11.7h-3.5zm3.4 12.3h3.6c3.7 0 6.1-2 6.1-5.1 0-3.5-2.5-5-6.2-5-1.7 0-2.9.2-3.4.3v9.8zm31.6-12.7v27h-3.5v-27zm22 27-8.8-27h3.8l4.2 13.3c1.2 3.6 2.2 6.9 2.9 10.1h.1c.8-3.1 1.9-6.5 3.1-10l4.6-13.3h3.7l-9.6 27h-4zm40.3-12.7h-10.5v9.7h11.7v2.9h-15.2v-27h14.6v2.9h-11.1v8.5h10.5zm34.2-14a39 39 0 0 1 6.7-.5c3.4 0 6 .8 7.6 2.2a7.2 7.2 0 0 1 2.4 5.6 8 8 0 0 1 -2.1 5.8c-1.8 2-4.8 3-8.2 3-1 0-2 0-2.8-.2v10.8h-3.5v-26.7zm3.5 13c.8.2 1.7.3 2.9.3 4.2 0 6.8-2 6.8-5.8 0-3.6-2.5-5.3-6.4-5.3-1.5 0-2.7.1-3.3.3zm41.8 1h-10.5v9.7h11.7v2.9h-15.2v-27h14.6v2.9h-11.1v8.5h10.5zm15.7-13.9c1.8-.4 4.3-.6 6.7-.6 3.7 0 6.1.7 7.8 2.2 1.4 1.2 2.1 3 2.1 5.1 0 3.6-2.2 5.9-5.1 6.9v.1c2.1.7 3.3 2.6 4 5.4.9 3.8 1.5 6.4 2.1 7.4h-3.6c-.4-.8-1-3.1-1.8-6.4-.8-3.7-2.2-5.1-5.4-5.2h-3.3v11.7h-3.5zm3.5 12.3h3.6c3.7 0 6.1-2 6.1-5.1 0-3.5-2.5-5-6.2-5-1.7 0-2.9.2-3.4.3v9.8zm28-12.7h14.5v2.9h-11v9h10.2v2.9h-10.2v12.2h-3.5zm52.5 13.2c0 9.3-5.6 14.2-12.5 14.2-7.1 0-12.1-5.5-12.1-13.7 0-8.6 5.3-14.2 12.5-14.2 7.4.1 12.1 5.7 12.1 13.7zm-20.9.5c0 5.8 3.1 10.9 8.6 10.9s8.6-5.1 8.6-11.2c0-5.4-2.8-11-8.6-11-5.7 0-8.6 5.3-8.6 11.3zm35.4-13.3c1.8-.4 4.3-.6 6.7-.6 3.7 0 6.1.7 7.8 2.2 1.4 1.2 2.1 3 2.1 5.1 0 3.6-2.2 5.9-5.1 6.9v.1c2.1.7 3.3 2.6 4 5.4.9 3.8 1.5 6.4 2.1 7.4h-3.6c-.4-.8-1-3.1-1.8-6.4-.8-3.7-2.2-5.1-5.4-5.2h-3.3v11.7h-3.5zm3.5 12.3h3.6c3.7 0 6.1-2 6.1-5.1 0-3.5-2.5-5-6.2-5-1.7 0-2.9.2-3.4.3v9.8zm50.8 2.4c-.2-3.8-.4-8.3-.4-11.6h-.1c-.9 3.2-2 6.5-3.4 10.2l-4.8 13.1h-2.6l-4.4-12.8a98.3 98.3 0 0 1 -3.1-10.5h-.1a632 632 0 0 1 -.5 11.9l-.7 11.6h-3.3l1.9-27h4.4l4.6 13c1.1 3.3 2 6.3 2.7 9.1h.1c.7-2.7 1.6-5.7 2.8-9.1l4.8-13h4.4l1.7 27h-3.4zm23.4 3.4-2.8 8.5h-3.6l9.2-27h4.2l9.2 27h-3.7l-2.9-8.5zm8.8-2.7-2.6-7.8-1.4-4.9h-.1c-.4 1.6-.8 3.2-1.4 4.9l-2.6 7.8zm21.3 11.2v-27h3.8l8.6 13.6c2 3.2 3.6 6 4.8 8.8h.1c-.3-3.6-.4-6.9-.4-11.1v-11.3h3.3v27h-3.5l-8.6-13.7c-1.9-3-3.7-6.1-5-9h-.1c.2 3.4.3 6.6.3 11.1v11.5h-3.3zm55.2-.9c-1.3.6-3.8 1.3-7.1 1.3-7.6 0-13.3-4.8-13.3-13.6 0-8.4 5.7-14.2 14.1-14.2 3.4 0 5.5.7 6.4 1.2l-.8 2.8c-1.3-.6-3.2-1.1-5.4-1.1-6.3 0-10.5 4-10.5 11.1 0 6.6 3.8 10.8 10.4 10.8 2.1 0 4.3-.4 5.7-1.1zm28.3-11.8h-10.5v9.7h11.7v2.9h-15.2v-27h14.6v2.9h-11.1v8.5h10.5zm14.6 10.6c0-1.5 1-2.5 2.4-2.5s2.4 1 2.4 2.5c0 1.4-.9 2.5-2.4 2.5s-2.4-1.1-2.4-2.5z" fill="#004874"/></svg>