<?xml version="1.0" encoding="utf-8"?>
<!-- Generator: Adobe Illustrator 25.4.1, SVG Export Plug-In . SVG Version: 6.00 Build 0)  -->
<svg version="1.1" id="Ebene_1" xmlns="http://www.w3.org/2000/svg" xmlns:xlink="http://www.w3.org/1999/xlink" x="0px" y="0px"
	 viewBox="0 0 425.2 212.6" style="enable-background:new 0 0 425.2 212.6;" xml:space="preserve">
<style type="text/css">
	.st0{fill:#BB1E10;}
	.st1{fill:#FFFFFF;}
</style>
<rect class="st0" width="425.2" height="212.6"/>
<g>
	<path class="st1" d="M165.09,71.46c-26.34,0.75-46.01,4.93-72.31,31.34c-5.14,5.16-32.91,32.51-37.88,37.4
		c-0.28,0.27-0.08,0.75,0.31,0.75h30.4c0.69,0,1.35-0.29,1.82-0.8c1.59-1.72,5.57-6.03,10.19-11.03h35.36v10.81
		c0,0.56,0.46,1.02,1.02,1.02h31.12c0.56,0,1.02-0.46,1.02-1.02V96.46V85.24V72.49C166.14,71.91,165.66,71.45,165.09,71.46z
		 M132.98,116.64h-23.82c4.84-5.24,8.8-9.5,9.7-10.45c7.34-7.74,12.52-9.76,14.13-10.24V116.64z"/>
	<path class="st1" d="M177.64,84.97V72.49c0-0.56,0.46-1.02,1.02-1.02h77.86c0.56,0,1.02,0.46,1.02,1.02v12.49
		c0,0.56-0.46,1.02-1.02,1.02h-22.35v53.96c0,0.56-0.46,1.02-1.02,1.02h-31.12c-0.56,0-1.02-0.46-1.02-1.02V86h-22.35
		C178.1,86,177.64,85.54,177.64,84.97z"/>
	<path class="st1" d="M324.45,71.46c-0.56,0-1.02,0.46-1.02,1.02v35.59c0,8.89-1.06,19.44-11.05,19.44
		c-9.99,0-10.17-9.98-10.17-20.17V72.49c0-0.56-0.46-1.02-1.02-1.02h-31.12c-0.56,0-1.02,0.46-1.02,1.02v34.71
		c0,35.41,38.97,35.44,43.33,35.44s42.02,0,42.02-35.3V72.49c0-0.56-0.46-1.02-1.02-1.02H324.45z"/>
</g>
</svg>
