<?xml version="1.0" encoding="UTF-8"?>
<svg id="Primary_3_Line_Logo" xmlns="http://www.w3.org/2000/svg" viewBox="0 0 435.03 261.93">
  <defs>
    <style>
      .cls-1 {
        fill: #614ffa;
      }

      .cls-2 {
        fill: #130254;
      }
    </style>
  </defs>
  <path class="cls-1" d="m141.48,2.96H42.88S1.43,44.41,1.43,44.41l68.77.02h0s0,0,0,0h0s-50.87,50.88-50.87,50.88C6.87,107.77,0,124.35,0,141.99s6.87,34.21,19.34,46.69c12.47,12.47,29.05,19.34,46.68,19.34s34.22-6.87,46.69-19.34l16.81-16.81-29.49-29.49-16.81,16.81c-4.59,4.59-10.7,7.12-17.2,7.12s-12.6-2.53-17.2-7.12c-4.59-4.59-7.12-10.7-7.12-17.2s2.53-12.6,7.12-17.2l51.18-51.18.02,68.77,41.45-41.45V2.96Z"/>
  <path class="cls-2" d="m203.92,132.23v13.61c0,5.68,3.39,8.74,9.94,8.74,3.17,0,5.46-.33,6.99-.65v17.37c-4.48,1.09-8.41,1.64-13.87,1.64-16.93,0-27.09-5.79-27.09-21.08v-19.88h-11.8v-13.75s2.12-.06,4.1-.29c7.66-.62,10.17-5.73,10.49-12.96.1-2.36.13-3.76.13-4.48h21.08s0,16.56,0,16.56h.03v.06h17.04v15.12h-17.04Zm131.25-37.78h24.03v77.26h-24.03v-77.26Zm76.38,43.17c0-5.68-4.04-9.5-11.03-9.5s-11.03,3.6-11.58,9.5h22.61Zm-22.61,11.69c.87,5.46,6.01,8.74,13.65,8.74,5.46,0,10.38-2.29,13.33-6.34l17.59,7.87c-6.01,8.52-17.37,13.76-31.46,13.76-22.39,0-35.83-10.71-35.83-28.73s13.54-29.17,34.63-29.17,34.19,11.36,34.19,30.15v3.71h-46.1Zm-117.8-11.69c0-5.68-4.04-9.5-11.03-9.5s-11.03,3.6-11.58,9.5h22.61Zm-22.61,11.69c.87,5.46,6.01,8.74,13.65,8.74,5.46,0,10.38-2.29,13.33-6.34l17.59,7.87c-6.01,8.52-17.37,13.76-31.46,13.76-22.39,0-35.83-10.71-35.83-28.73s13.55-29.17,34.63-29.17,34.19,11.36,34.19,30.15v3.71h-46.1Zm65.13-31.63c-4.47,0-8.54-.72-12.01-2.11v56.14h24.02v-56.14c-3.47,1.39-7.54,2.11-12.01,2.11Zm0-6.37c7.65,0,13.21-3.78,13.21-10.71s-5.56-10.63-13.21-10.63-13.21,3.7-13.21,10.63,5.56,10.71,13.21,10.71Zm-20.67-86.25v-1.75c0-4.71,2.74-6.79,8.76-6.79,2.74,0,4.92.11,7.88.66V1.2c-3.72-.77-7.88-1.2-11.71-1.2-19.48,0-29.11,7.66-29.11,23.09v1.96h-11.6v15.11h11.6v40.05h24.19v-40.05h16.63v-15.1h-16.63Zm20.44,55.16h61.01v-15.44h-30.78l29.24-26.26v-13.46h-58.14v15.22h28.79l-30.12,26.15v13.79Zm-49.39-8.86h.02s-13.8-13.82-13.8-13.82c-2.31,2.87-5.85,4.72-9.82,4.72-6.61,0-12.01-5.1-12.53-11.58l26.88-25.63-28.23.02-19.61,19.58V2.96h-24.08v77.25h24.08v-13.46l4.23-3.86c.85,1.86,1.85,3.65,3.02,5.3.87,1.34,1.88,2.6,3.06,3.78.5.5,1.01.97,1.54,1.44,5.71,5.21,13.31,8.39,21.65,8.39,0,0,0,0,0,0s0,0,0,0c2.95,0,5.79-.4,8.5-1.15.39-.1.75-.2,1.03-.29,7.3-2.27,11.96-6.63,14.12-8.95-.02-.02-.03-.04-.05-.05Zm-11.21,190.57v-17.63h-36.85c8.76-3.2,16.99-7.05,22.65-10.9,9.19-6.3,13.35-13.35,13.35-23.39,0-16.02-13.25-24.14-33.76-24.14s-34.49,9.22-35.47,24.68c-.1,1.6.22,5.25.73,6.88h23.75c-.21-1.71-.44-3.03-.44-4.21,0-6.52,3.95-10.04,10.47-10.04s9.51,3.31,9.51,8.97c0,6.09-2.67,10.79-10.47,16.02-7.16,4.59-19.23,11-33.33,17.95v15.81h69.86Zm48.17-48.56c0-3.67.11-5.83.32-7.77h-.32c-.97,2.16-2.7,4.53-5.61,7.77l-9.5,11.87c-2.37,2.7-3.78,4.21-5.83,5.61h20.93v-17.48Zm36.15,33.67h-13.17v14.89h-23.63v-14.89h-41.76v-15.22l39.28-44.89h26.11v43.92h13.17v16.19Z"/>
</svg>